<svg id="Layer_1_copy" data-name="Layer 1 copy" xmlns="http://www.w3.org/2000/svg" xmlns:xlink="http://www.w3.org/1999/xlink" viewBox="0 0 72 72"><defs><style>.cls-1,.cls-2,.cls-4,.cls-6,.cls-7{fill:none;}.cls-1,.cls-4,.cls-7{stroke:#000;}.cls-1{stroke-miterlimit:10;}.cls-3{clip-path:url(#clip-path);}.cls-4,.cls-6,.cls-7{stroke-linecap:round;stroke-linejoin:round;}.cls-5{clip-path:url(#clip-path-2);}.cls-6{stroke:#050505;}.cls-6,.cls-7{stroke-width:3px;}</style><clipPath id="clip-path"><path class="cls-1" d="M55.48,63.61,50,66.77a.5.5,0,0,1-.67-.15.5.5,0,0,1,.11-.67L51,64.68l-3.62,2.09a.49.49,0,0,1-.66-.15.51.51,0,0,1,.1-.68l5.67-4.41-9.09,5.24a.5.5,0,0,1-.67-.16.5.5,0,0,1,.14-.68l7.43-5.18-10.43,6a.5.5,0,0,1-.68-.17.51.51,0,0,1,.15-.68l7.19-4.71-9.63,5.56a.49.49,0,0,1-.67-.17.5.5,0,0,1,.15-.68l12.22-8L33.27,66.77a.5.5,0,0,1-.52-.85L46,57.47l-16.11,9.3a.5.5,0,0,1-.51-.86l.41-.25-1.93,1.11a.5.5,0,0,1-.68-.18.5.5,0,0,1,.17-.68l.54-.33-2.05,1.19a.5.5,0,0,1-.68-.17.51.51,0,0,1,.16-.69L42.8,55,22.47,66.77a.49.49,0,0,1-.67-.17.51.51,0,0,1,.16-.69L41.61,53.76,19.88,66.31a.51.51,0,0,1-.68-.18.5.5,0,0,1,.16-.68L41.79,51.57,18.17,65.2a.5.5,0,0,1-.68-.17.51.51,0,0,1,.17-.69L39.38,51,17.14,63.79a.5.5,0,0,1-.68-.17.51.51,0,0,1,.17-.69L35.39,51.44l-19,11a.49.49,0,0,1-.68-.18.5.5,0,0,1,.16-.68L39.11,47.18,15.45,60.85a.52.52,0,0,1-.69-.18.52.52,0,0,1,.18-.69l7.85-4.74-7.93,4.58a.5.5,0,0,1-.68-.17.5.5,0,0,1,.17-.69L34.3,46.71,14,58.41a.51.51,0,0,1-.68-.18.5.5,0,0,1,.17-.68l6.84-4.13-6.9,4a.5.5,0,0,1-.51-.86l7.41-4.48L12.89,56.4a.51.51,0,0,1-.68-.18.5.5,0,0,1,.16-.68L33.23,42.71,12.05,54.94a.49.49,0,0,1-.68-.18.5.5,0,0,1,.16-.68l20-12.26L11.23,53.52a.49.49,0,0,1-.68-.18.5.5,0,0,1,.17-.68l15.11-9.2L10.53,52.3a.52.52,0,0,1-.69-.18.52.52,0,0,1,.18-.69l6.43-3.87L10,51.31a.51.51,0,0,1-.68-.18.49.49,0,0,1,.17-.68l15-9.12L9.25,50.08a.5.5,0,0,1-.51-.85L33.4,33.92,8.29,48.42a.5.5,0,0,1-.51-.87l13.27-8L7.62,47.25a.49.49,0,0,1-.68-.18.5.5,0,0,1,.17-.68l21.1-13L6.77,45.78a.5.5,0,0,1-.51-.86L27.81,31.64,5.92,44.29a.51.51,0,0,1-.68-.18.49.49,0,0,1,.17-.68l12.67-7.7L5.25,43.14A.51.51,0,0,1,4.57,43a.49.49,0,0,1,.18-.68l9.74-5.9L4.64,42.07A.49.49,0,0,1,4,41.89a.5.5,0,0,1,.17-.68L17,33.41,4,40.91a.5.5,0,1,1-.51-.86l2.64-1.58L3.45,40a.49.49,0,0,1-.68-.18.5.5,0,0,1,.17-.68L9.87,35l-7,4a.51.51,0,0,1-.68-.18.5.5,0,0,1,.16-.68L24.7,24.35,2.38,37.23a.5.5,0,0,1-.68-.17.5.5,0,0,1,.17-.69l8.22-5L2.38,35.85A.5.5,0,0,1,1.86,35L20.18,23.7l-17,9.81a.5.5,0,0,1-.51-.86L19.17,22.44,4.8,30.74a.5.5,0,0,1-.52-.86l15-9.4L6.42,27.93a.5.5,0,0,1-.52-.86L22.27,16.51l-13.91,8a.49.49,0,0,1-.67-.17.5.5,0,0,1,.16-.68l8-5.05L9.74,22.15A.5.5,0,0,1,9.06,22a.49.49,0,0,1,.17-.68l1.4-.88a.5.5,0,0,1-.38-.91l5.67-3.68L12.12,18a.5.5,0,0,1-.54-.84l6.8-4.7-4.6,2.66a.5.5,0,0,1-.53-.85l1.57-1.07a.49.49,0,0,1-.59-.19.5.5,0,0,1,.13-.68L16.15,11l0,0a.51.51,0,0,1-.65-.13.5.5,0,0,1,0-.66l2.16-2.09a.52.52,0,0,1-.33-.24.5.5,0,0,1,.18-.68l2.79-1.61a.51.51,0,0,1,.65.13.5.5,0,0,1-.05.66L19.15,8.16l4.68-2.71a.5.5,0,0,1,.67.17.49.49,0,0,1-.12.67L22.58,7.6,26.3,5.45a.5.5,0,0,1,.67.17.5.5,0,0,1-.14.68l-1.49,1,3.21-1.86a.5.5,0,0,1,.67.17.49.49,0,0,1-.13.68L22.29,11l9.6-5.54a.5.5,0,0,1,.67.18.49.49,0,0,1-.15.68L26.74,10,34.6,5.45a.51.51,0,0,1,.68.18.5.5,0,0,1-.17.68l-.83.52,2.38-1.38a.51.51,0,0,1,.68.18.5.5,0,0,1-.16.68l-8,5.05L39.43,5.45a.51.51,0,0,1,.68.18.5.5,0,0,1-.16.68L23.57,16.87,43.34,5.45a.51.51,0,0,1,.68.18.49.49,0,0,1-.17.68l-15,9.4L46.59,5.45a.51.51,0,0,1,.68.18.49.49,0,0,1-.17.68L30.62,16.52,49.79,5.45a.51.51,0,0,1,.68.18.49.49,0,0,1-.17.68L32,17.6,52.19,5.94a.5.5,0,0,1,.68.18.5.5,0,0,1-.17.68l-8.23,5,8.89-5.14a.51.51,0,0,1,.68.18.49.49,0,0,1-.17.68L31.56,21.28,54.6,8a.51.51,0,0,1,.68.18.49.49,0,0,1-.18.68L48.18,13l7-4a.5.5,0,1,1,.5.86l-2.63,1.58,2.65-1.53a.5.5,0,0,1,.51.86l-12.84,7.8,13-7.51a.51.51,0,0,1,.68.18.5.5,0,0,1-.17.68l-9.74,5.9L57,12.11a.5.5,0,0,1,.51.86l-12.67,7.7,12.82-7.41a.49.49,0,0,1,.68.18.5.5,0,0,1-.16.68L36.61,27.4l21.9-12.65a.5.5,0,0,1,.68.18.49.49,0,0,1-.17.68l-21.1,13L59.36,16.22a.51.51,0,0,1,.68.18.5.5,0,0,1-.17.68L46.6,25.14,60,17.39a.5.5,0,0,1,.51.86L35.88,33.56,61,19.06a.5.5,0,0,1,.51.86L46.53,29l15.16-8.75a.5.5,0,1,1,.51.86L55.77,25l6.49-3.75a.5.5,0,0,1,.51.86l-15.1,9.2L63,22.5a.5.5,0,0,1,.68.17.49.49,0,0,1-.17.68l-20,12.26,20.27-11.7a.5.5,0,0,1,.51.86L43.44,37.6,64.63,25.37a.5.5,0,0,1,.5.86l-7.41,4.48,7.49-4.33a.49.49,0,0,1,.68.18.5.5,0,0,1-.17.68l-6.84,4.12,6.9-4a.5.5,0,0,1,.51.86l-20,12.25L66.6,28.8a.49.49,0,0,1,.68.18.5.5,0,0,1-.17.68L59.25,34.4l7.94-4.58a.5.5,0,0,1,.68.17.51.51,0,0,1-.17.69L44.43,45.07,68.1,31.4a.51.51,0,0,1,.68.18.5.5,0,0,1-.17.68L49.85,43.75l19-11a.5.5,0,0,1,.68.17.51.51,0,0,1-.16.69L47.68,47,69.56,34.38a.5.5,0,0,1,.68.17.51.51,0,0,1-.16.69L47.65,49.12l22-12.7a.5.5,0,0,1,.67.18.5.5,0,0,1-.16.68L50.5,49.44l18.19-10.5a.49.49,0,0,1,.67.17.5.5,0,0,1-.16.68L51.71,50.67,67,41.83a.5.5,0,0,1,.51.87l-1.39.83a.52.52,0,0,1,.55.24.5.5,0,0,1-.17.68l-1.37.83a.51.51,0,0,1,.53.23.5.5,0,0,1-.16.68L52.27,54.64l11-6.37a.5.5,0,0,1,.53.85l-12.22,8,9.87-5.7a.5.5,0,0,1,.52.85L54.82,57,60,54a.5.5,0,0,1,.54.85L53.11,60l5.14-3a.5.5,0,0,1,.56.83l-5.67,4.42,3.13-1.81a.5.5,0,0,1,.66.15.49.49,0,0,1-.1.67l-1.71,1.37a.51.51,0,0,1,.54.24A.49.49,0,0,1,55.48,63.61Z"/></clipPath><clipPath id="clip-path-2"><path class="cls-2" d="M49.54,52.87a1.62,1.62,0,0,1-1.4.3,1.47,1.47,0,0,1-.65-.35c-.77.44-1,.48-1.52.36a1.55,1.55,0,0,1-.95-.71c-.33-.59-.33-.81.37-2.9-1.63,1-1.92,1.1-2.54,1a1.55,1.55,0,0,1-1-.71,1.31,1.31,0,0,1-.2-1.06A1.58,1.58,0,0,1,41,48.1c-.38-.66-.4-.93.51-2.6a1.56,1.56,0,0,1-1.3.22,1.53,1.53,0,0,1-.94-.71,3.36,3.36,0,0,1-.19-.38l-.15-.22a1.39,1.39,0,0,1-.24-.94,1.51,1.51,0,0,1-.61-.59,1.47,1.47,0,0,1-.27-.83,1.53,1.53,0,0,1-.49-.52c-.34-.59-.38-1,.17-1.82a1.35,1.35,0,0,1-.66,0,1.58,1.58,0,0,1-1-.71c-.5-.88-.54-1.23,1.47-3.25a1.41,1.41,0,0,1-.65,0,1.59,1.59,0,0,1-1-.72c-.74-1.28.33-2.11,2.11-3.49l.06-.05-.1-.15a1.59,1.59,0,0,1-.17-1.07,1.81,1.81,0,0,1,.09-.31,1.05,1.05,0,0,1,.17-.31,9.65,9.65,0,0,1,2-1.9l.3-.24a1.12,1.12,0,0,1-.16-.22,1.44,1.44,0,0,1,.36-2,1.27,1.27,0,0,1,.21-.61,1.6,1.6,0,0,1,.19-.29,18.4,18.4,0,0,1,1.6-1.71A1.5,1.5,0,0,1,43,20.79a1.48,1.48,0,0,1,.29-.12l1-.65c1.56-1,1.85-1.15,2.53-1a1.47,1.47,0,0,1,.94.71A2.6,2.6,0,0,1,48,20c1.63-1,2-1,2.53-.89a1.66,1.66,0,0,1,1,.73,1.66,1.66,0,0,1,.14.31,1.08,1.08,0,0,1,.18.24c.73,1.27-.33,2.11-2.08,3.5l-.1.08a1.2,1.2,0,0,1,.18.26,1.52,1.52,0,0,1,.19,1,1.62,1.62,0,0,1-.12.43,1.49,1.49,0,0,1-.14.24,9.69,9.69,0,0,1-2.07,1.9l-.06,0,.1.15c.66,1.14.52,1.4-3.81,5.52a1.7,1.7,0,0,1,.46.5c.41.72.39,1.1-.65,2.5h0a1.67,1.67,0,0,1,1.21,1.55,1.5,1.5,0,0,1,.49.51,1.32,1.32,0,0,1,.24.95,1.41,1.41,0,0,1,.62.59,2.69,2.69,0,0,1,.19.38l.15.21c.37.66.39.93-.52,2.6a1.58,1.58,0,0,1,2.24.49,1.28,1.28,0,0,1,.21,1.06,1.48,1.48,0,0,1,.75.65c.34.59.34.8-.37,2.9a1.58,1.58,0,0,1,2.47,1,1.34,1.34,0,0,1,.32.39,1.49,1.49,0,0,1-.55,2,1.28,1.28,0,0,1-.24.11l-.68.42Zm.52-.81h0Zm-.69-.39A1.63,1.63,0,0,0,50,52h0a1.51,1.51,0,0,1-.6-.37Zm-5.13-31,.11,0h0ZM26.6,52.83a1.75,1.75,0,0,1-1.49.35,1.57,1.57,0,0,1-.76-.46c-1,.56-1.29.59-1.78.46a1.5,1.5,0,0,1-.5-.22,1.35,1.35,0,0,1-.82,0,1.49,1.49,0,0,1-.95-.71c-.61-1.06,0-1.81,1.18-2.75l-.09-.13c-.67-1.17-.55-1.5,4.15-5.49a1.55,1.55,0,0,1-.72-.64c-.59-1-.53-1.4,2-3.47a.22.22,0,0,1-.05-.08c-.52-.9-.44-1.27,1.47-3.26a1.82,1.82,0,0,1-.6-1.23,1.59,1.59,0,0,1-.49-.51A1.27,1.27,0,0,1,27,33.6a1.49,1.49,0,0,1-.77-.65c-.38-.66-.39-.93.52-2.62a1.59,1.59,0,0,1-1.31.23,1.53,1.53,0,0,1-.94-.71c-.39-.68-.39-.94.67-3-.84.47-1.12.5-1.6.38a1.55,1.55,0,0,1-.95-.71c-.33-.58-.33-.79.31-2.73a1.47,1.47,0,0,1-1.19.18,1.53,1.53,0,0,1-.94-.71,1.72,1.72,0,0,1-.21-.55,1.43,1.43,0,0,1-.31-.38,1.5,1.5,0,0,1,.55-2l.24-.11.64-.39c1-.66,1.41-.89,2.07-.72a1.47,1.47,0,0,1,.63.33c.73-.41,1-.45,1.49-.33a1.53,1.53,0,0,1,.94.71c.33.57.34.79-.3,2.71,1.62-1,1.91-1.1,2.54-.94a1.53,1.53,0,0,1,.94.71c.39.68.38.93-.67,3,.84-.48,1.12-.51,1.6-.39a1.55,1.55,0,0,1,.95.71c.38.66.39.93-.52,2.62a1.59,1.59,0,0,1,2.26.48,1.25,1.25,0,0,1,.2,1.08,1.55,1.55,0,0,1,.77.66,1.51,1.51,0,0,1,.26.82,1.53,1.53,0,0,1,.49.52,1.21,1.21,0,0,1,0,1.5l.3.06a1.58,1.58,0,0,1,.95.71,1.27,1.27,0,0,1-.2,1.83,1.46,1.46,0,0,1,.41.45c.67,1.17.55,1.51-4.17,5.51a1.49,1.49,0,0,1,.72.64c.73,1.25-.3,2.07-1.88,3.29l0,0C32,46.58,32,47,31,47.9c.06.56-.33,1.07-1.29,2a1.56,1.56,0,0,1-1,1.71c-.23.11-.7.42-1,.63ZM22,20.11a1.57,1.57,0,0,1,.65.37h0a1.5,1.5,0,0,0-.65-.36Z"/></clipPath></defs><title>xamagon</title><g class="cls-3"><polyline class="cls-4" points="-3.83 72.03 -3.33 71.74 -1.42 72.71 0.26 71.74 1.18 72.71 2.86 71.74 3.83 72.71 5.51 71.74 6.56 72.71 8.24 71.74 10.29 72.71 11.98 71.74 12.68 72.71 14.36 71.73 15.91 72.7 17.59 71.73 18.25 72.7 19.93 71.73 20.47 72.7 22.16 71.73 23.58 72.7 25.27 71.73 26.74 72.7 28.42 71.73 29.93 72.7 31.61 71.73 32.85 72.7 34.53 71.73 35.14 72.7 36.83 71.73 38.17 72.7 39.85 71.72 41.7 72.69 43.38 71.72 44.84 72.69 46.52 71.72 47.02 72.69 48.7 71.72 50.47 72.69 52.15 71.72 53.36 72.69 55.04 71.72 56.85 72.69 58.53 71.72 60.52 72.69 62.2 71.72 62.77 72.69 64.45 71.72 66.1 72.69 67.78 71.71 68.33 72.69 70.01 71.71 72.1 72.68 73.78 71.71 74.23 72.68 76.35 71.46"/><polyline class="cls-4" points="-3.8 -0.17 -3.3 -0.46 -1.82 0.51 -0.14 -0.46 0.65 0.51 2.33 -0.46 2.9 0.51 4.58 -0.46 6.24 0.51 7.92 -0.46 8.95 0.51 10.63 -0.46 11.02 0.51 12.7 -0.46 13.79 0.51 15.47 -0.46 17.7 0.51 19.38 -0.47 20.95 0.51 22.63 -0.47 24.16 0.5 25.84 -0.47 27.4 0.5 29.08 -0.47 29.79 0.5 31.47 -0.47 33.35 0.5 35.03 -0.47 35.66 0.5 37.34 -0.47 37.77 0.5 39.45 -0.47 40.43 0.5 42.11 -0.47 42.9 0.5 44.58 -0.47 45.55 0.49 47.23 -0.47 49 0.49 50.68 -0.48 52.39 0.49 54.07 -0.48 55.09 0.49 56.77 -0.48 58.94 0.49 60.62 -0.48 61.76 0.49 63.44 -0.48 64.05 0.49 65.73 -0.48 66.88 0.49 68.56 -0.48 70.15 0.49 71.83 -0.48 73.52 0.48 75.2 -0.49 75.35 0.77 76.32 0.21 75.35 2.1 76.32 1.54 75.35 3.99 76.32 3.43 75.36 5.35 76.33 4.79 75.36 7.46 76.33 6.9 75.36 9.28 76.33 8.72 75.36 11.28 76.33 10.72 75.36 13.37 76.33 12.81 75.36 15.33 76.33 14.77 75.36 17.27 76.33 16.71 75.36 18.44 76.33 17.88 75.36 19.6 76.33 19.04 75.36 21.56 76.33 21 75.36 23.68 76.33 23.12 75.36 25.39 76.33 24.83 75.36 27.43 76.33 26.87 75.36 29.73 76.33 29.16 75.36 31.22 76.33 30.66 75.37 33.36 76.34 32.8 75.37 35.05 76.34 34.48 75.37 37.19 76.34 36.63 75.37 39.2 76.34 38.64 75.37 41.39 76.34 40.83 75.37 42.87 76.34 42.3 75.37 44.83 76.34 44.27 75.37 46.22 76.34 45.66 75.37 47.9 76.34 47.34 75.37 49.44 76.34 48.88 75.37 50.64 76.34 50.08 75.37 52.22 76.34 51.66 75.38 54.07 76.34 53.51 75.38 55.38 76.34 54.82 75.38 57.38 76.35 56.82 75.38 59.27 76.35 58.71 75.38 60.44 76.35 59.88 75.38 62.14 76.35 61.58 75.38 63.62 76.35 63.06 75.38 65.64 76.35 65.08 75.38 66.88 76.35 66.32 75.38 68.79 76.35 68.23 75.38 70.36 76.35 69.8"/></g><path class="cls-1" d="M55.48,63.61,50,66.77a.5.5,0,0,1-.67-.15.5.5,0,0,1,.11-.67L51,64.68l-3.62,2.09a.49.49,0,0,1-.66-.15.51.51,0,0,1,.1-.68l5.67-4.41-9.09,5.24a.5.5,0,0,1-.67-.16.5.5,0,0,1,.14-.68l7.43-5.18-10.43,6a.5.5,0,0,1-.68-.17.51.51,0,0,1,.15-.68l7.19-4.71-9.63,5.56a.49.49,0,0,1-.67-.17.5.5,0,0,1,.15-.68l12.22-8L33.27,66.77a.5.5,0,0,1-.52-.85L46,57.47l-16.11,9.3a.5.5,0,0,1-.51-.86l.41-.25-1.93,1.11a.5.5,0,0,1-.68-.18.5.5,0,0,1,.17-.68l.54-.33-2.05,1.19a.5.5,0,0,1-.68-.17.51.51,0,0,1,.16-.69L42.8,55,22.47,66.77a.49.49,0,0,1-.67-.17.51.51,0,0,1,.16-.69L41.61,53.76,19.88,66.31a.51.51,0,0,1-.68-.18.5.5,0,0,1,.16-.68L41.79,51.57,18.17,65.2a.5.5,0,0,1-.68-.17.51.51,0,0,1,.17-.69L39.38,51,17.14,63.79a.5.5,0,0,1-.68-.17.51.51,0,0,1,.17-.69L35.39,51.44l-19,11a.49.49,0,0,1-.68-.18.5.5,0,0,1,.16-.68L39.11,47.18,15.45,60.85a.52.52,0,0,1-.69-.18.52.52,0,0,1,.18-.69l7.85-4.74-7.93,4.58a.5.5,0,0,1-.68-.17.5.5,0,0,1,.17-.69L34.3,46.71,14,58.41a.51.51,0,0,1-.68-.18.5.5,0,0,1,.17-.68l6.84-4.13-6.9,4a.5.5,0,0,1-.51-.86l7.41-4.48L12.89,56.4a.51.51,0,0,1-.68-.18.5.5,0,0,1,.16-.68L33.23,42.71,12.05,54.94a.49.49,0,0,1-.68-.18.5.5,0,0,1,.16-.68l20-12.26L11.23,53.52a.49.49,0,0,1-.68-.18.5.5,0,0,1,.17-.68l15.11-9.2L10.53,52.3a.52.52,0,0,1-.69-.18.52.52,0,0,1,.18-.69l6.43-3.87L10,51.31a.51.51,0,0,1-.68-.18.49.49,0,0,1,.17-.68l15-9.12L9.25,50.08a.5.5,0,0,1-.51-.85L33.4,33.92,8.29,48.42a.5.5,0,0,1-.51-.87l13.27-8L7.62,47.25a.49.49,0,0,1-.68-.18.5.5,0,0,1,.17-.68l21.1-13L6.77,45.78a.5.5,0,0,1-.51-.86L27.81,31.64,5.92,44.29a.51.51,0,0,1-.68-.18.49.49,0,0,1,.17-.68l12.67-7.7L5.25,43.14A.51.51,0,0,1,4.57,43a.49.49,0,0,1,.18-.68l9.74-5.9L4.64,42.07A.49.49,0,0,1,4,41.89a.5.5,0,0,1,.17-.68L17,33.41,4,40.91a.5.5,0,1,1-.51-.86l2.64-1.58L3.45,40a.49.49,0,0,1-.68-.18.5.5,0,0,1,.17-.68L9.87,35l-7,4a.51.51,0,0,1-.68-.18.5.5,0,0,1,.16-.68L24.7,24.35,2.38,37.23a.5.5,0,0,1-.68-.17.5.5,0,0,1,.17-.69l8.22-5L2.38,35.85A.5.5,0,0,1,1.86,35L20.18,23.7l-17,9.81a.5.5,0,0,1-.51-.86L19.17,22.44,4.8,30.74a.5.5,0,0,1-.52-.86l15-9.4L6.42,27.93a.5.5,0,0,1-.52-.86L22.27,16.51l-13.91,8a.49.49,0,0,1-.67-.17.5.5,0,0,1,.16-.68l8-5.05L9.74,22.15A.5.5,0,0,1,9.06,22a.49.49,0,0,1,.17-.68l1.4-.88a.5.5,0,0,1-.38-.91l5.67-3.68L12.12,18a.5.5,0,0,1-.54-.84l6.8-4.7-4.6,2.66a.5.5,0,0,1-.53-.85l1.57-1.07a.49.49,0,0,1-.59-.19.5.5,0,0,1,.13-.68L16.15,11l0,0a.51.51,0,0,1-.65-.13.5.5,0,0,1,0-.66l2.16-2.09a.52.52,0,0,1-.33-.24.5.5,0,0,1,.18-.68l2.79-1.61a.51.51,0,0,1,.65.13.5.5,0,0,1-.05.66L19.15,8.16l4.68-2.71a.5.5,0,0,1,.67.17.49.49,0,0,1-.12.67L22.58,7.6,26.3,5.45a.5.5,0,0,1,.67.17.5.5,0,0,1-.14.68l-1.49,1,3.21-1.86a.5.5,0,0,1,.67.17.49.49,0,0,1-.13.68L22.29,11l9.6-5.54a.5.5,0,0,1,.67.18.49.49,0,0,1-.15.68L26.74,10,34.6,5.45a.51.51,0,0,1,.68.18.5.5,0,0,1-.17.68l-.83.52,2.38-1.38a.51.51,0,0,1,.68.18.5.5,0,0,1-.16.68l-8,5.05L39.43,5.45a.51.51,0,0,1,.68.18.5.5,0,0,1-.16.68L23.57,16.87,43.34,5.45a.51.51,0,0,1,.68.18.49.49,0,0,1-.17.68l-15,9.4L46.59,5.45a.51.51,0,0,1,.68.18.49.49,0,0,1-.17.68L30.62,16.52,49.79,5.45a.51.51,0,0,1,.68.18.49.49,0,0,1-.17.68L32,17.6,52.19,5.94a.5.5,0,0,1,.68.18.5.5,0,0,1-.17.68l-8.23,5,8.89-5.14a.51.51,0,0,1,.68.18.49.49,0,0,1-.17.68L31.56,21.28,54.6,8a.51.51,0,0,1,.68.18.49.49,0,0,1-.18.68L48.18,13l7-4a.5.5,0,1,1,.5.86l-2.63,1.58,2.65-1.53a.5.5,0,0,1,.51.86l-12.84,7.8,13-7.51a.51.51,0,0,1,.68.18.5.5,0,0,1-.17.68l-9.74,5.9L57,12.11a.5.5,0,0,1,.51.86l-12.67,7.7,12.82-7.41a.49.49,0,0,1,.68.18.5.5,0,0,1-.16.68L36.61,27.4l21.9-12.65a.5.5,0,0,1,.68.18.49.49,0,0,1-.17.68l-21.1,13L59.36,16.22a.51.51,0,0,1,.68.18.5.5,0,0,1-.17.68L46.6,25.14,60,17.39a.5.5,0,0,1,.51.86L35.88,33.56,61,19.06a.5.5,0,0,1,.51.86L46.53,29l15.16-8.75a.5.5,0,1,1,.51.86L55.77,25l6.49-3.75a.5.5,0,0,1,.51.86l-15.1,9.2L63,22.5a.5.5,0,0,1,.68.17.49.49,0,0,1-.17.68l-20,12.26,20.27-11.7a.5.5,0,0,1,.51.86L43.44,37.6,64.63,25.37a.5.5,0,0,1,.5.86l-7.41,4.48,7.49-4.33a.49.49,0,0,1,.68.18.5.5,0,0,1-.17.68l-6.84,4.12,6.9-4a.5.5,0,0,1,.51.86l-20,12.25L66.6,28.8a.49.49,0,0,1,.68.18.5.5,0,0,1-.17.68L59.25,34.4l7.94-4.58a.5.5,0,0,1,.68.17.51.51,0,0,1-.17.69L44.43,45.07,68.1,31.4a.51.51,0,0,1,.68.18.5.5,0,0,1-.17.68L49.85,43.75l19-11a.5.5,0,0,1,.68.17.51.51,0,0,1-.16.69L47.68,47,69.56,34.38a.5.5,0,0,1,.68.17.51.51,0,0,1-.16.69L47.65,49.12l22-12.7a.5.5,0,0,1,.67.18.5.5,0,0,1-.16.68L50.5,49.44l18.19-10.5a.49.49,0,0,1,.67.17.5.5,0,0,1-.16.68L51.71,50.67,67,41.83a.5.5,0,0,1,.51.87l-1.39.83a.52.52,0,0,1,.55.24.5.5,0,0,1-.17.68l-1.37.83a.51.51,0,0,1,.53.23.5.5,0,0,1-.16.68L52.27,54.64l11-6.37a.5.5,0,0,1,.53.85l-12.22,8,9.87-5.7a.5.5,0,0,1,.52.85L54.82,57,60,54a.5.5,0,0,1,.54.85L53.11,60l5.14-3a.5.5,0,0,1,.56.83l-5.67,4.42,3.13-1.81a.5.5,0,0,1,.66.15.49.49,0,0,1-.1.67l-1.71,1.37a.51.51,0,0,1,.54.24A.49.49,0,0,1,55.48,63.61Z"/><g class="cls-5"><path class="cls-6" d="M-3.8.91S-2.33,0-2.3,0s-1.55,2-1.5,2.09S-.25-.08-.18,0-3.93,6.23-3.8,6.45C-3.58,6.84,7.07-.35,7.3,0S-4.08,10.41-3.8,10.88C-3.42,11.54,14.6-.62,15,0S-4.22,14.25-3.8,15C-3.28,15.89,21.56-.87,22.08,0S-4.35,16.34-3.8,17.28,25.47-1,26.07,0-4.42,18-3.8,19.05,28.47-1.12,29.14,0-4.5,20.86-3.8,22.06,33.59-1.31,34.36,0-4.6,23.09-3.8,24.47,37.67-1.45,38.53,0-4.7,27.07-3.8,28.62C-2.8,30.35,44.72-1.71,45.72,0S-4.83,29.1-3.8,30.87,48.54-1.85,49.62,0-4.89,30-3.8,31.86,50.22-1.91,51.33,0-4.94,32.14-3.8,34.11,54-2,55.23,0-5,35.71-3.8,37.83C-2.48,40.13,60.37-2.27,61.69,0S-5.17,40-3.8,42.33C-2.32,44.9,68-2.55,69.49,0S-5.29,39.84-3.8,42.4,68.13-2.55,69.61,0-5.33,44.29-3.8,46.93s78-48.76,79.62-46S-5.42,44.5-3.8,47.29s78-48.76,79.62-46S-5.46,49.05-3.8,51.91s78-48.76,79.63-46S-5.42,50.26-3.8,53.07s78-48.76,79.63-46S-5.42,51.35-3.8,54.15s78-48.76,79.63-46S-5.45,55.85-3.8,58.71s78-48.76,79.63-46S-5.44,58.36-3.8,61.19s78-48.77,79.63-46S-5.42,58.86-3.8,61.65s78-48.76,79.63-46S-5.43,60.94-3.8,63.76s78-48.77,79.63-46S-5.43,63-3.8,65.79s78-48.76,79.63-46S-5.44,66-3.8,68.8s78-48.76,79.63-46S-4.27,69.4-2.65,72.21,74.25,24.15,75.83,26.9-2.62,69.51-1.06,72.21,74.28,25.13,75.83,27.82C77.3,30.36,3,69.66,4.51,72.21S74.39,28.53,75.84,31,4,69.74,5.42,72.21s69-43.12,70.42-40.66S5.87,69.79,7.27,72.21s67.18-42,68.57-39.59S8.12,69.86,9.47,72.21s65-40.64,66.37-38.32S12,70,13.24,72.21s61.33-38.33,62.6-36.14-62.43,34-61.19,36.13,60-37.46,61.19-35.32c1.14,2-56.06,33.34-54.91,35.32s53.8-33.62,54.91-31.7c1,1.73-48.65,30-47.64,31.7S74.88,43,75.84,44.69s-43.3,26-42.41,27.51S75,46.23,75.84,47.71c.74,1.28-35.17,23.2-34.43,24.48S75.15,51.11,75.84,52.32,44.76,71.09,45.4,72.19,75.23,53.55,75.85,54.62,47,71.18,47.56,72.19,75.27,54.87,75.85,55.86,50.39,71.29,50.91,72.19s24.43-15.27,24.94-14.4S55.14,71.44,55.57,72.19,75.44,59.77,75.85,60.48s-20.5,11-20.1,11.71,19.69-12.3,20.1-11.6S55.58,71.49,56,72.19,75.45,60,75.85,60.72s-20,10.78-19.59,11.47,19.19-12,19.59-11.31S61,71.63,61.29,72.19s14.26-8.92,14.56-8.41-12.92,8-12.65,8.41,12.39-7.75,12.65-7.31S64,71.77,64.24,72.19s11.38-7.11,11.61-6.7S65,71.81,65.25,72.19s10.39-6.49,10.6-6.12S67,71.86,67.17,72.19s8.51-5.32,8.68-5-5.06,4.79-4.93,5,4.83-3,4.93-2.85S74,72.08,74.1,72.18s1.72-1.07,1.75-1-1.53,1-1.5,1,1.47-.92,1.5-.86"/><path class="cls-7" d="M-1.76.48c0,.06,1.55-1,1.58-.91S3.69.36,3.76.48s1.55-1,1.58-.91-1,.87-1,.91S5.93-.49,6-.43,7.19.43,7.22.48s1.55-1,1.58-.92.6.89.62.92S11-.49,11-.44s2.55.83,2.6.92,1.56-1,1.59-.92,3.94.79,4,.92,1.56-1,1.59-.92-.68.88-.66.91,1.56-1,1.59-.91,5.89.73,6,.91,1.57-1,1.6-.92,5.29.75,5.38.92,1.57-1,1.6-.93,1.51.87,1.54.93,1.57-1,1.61-.93-.6.89-.59.93,1.58-1,1.61-.93.64.89.66.93,1.58-1,1.61-.93-.24.9-.23.93,1.58-1,1.61-.93,6,.74,6.07.92,1.58-1,1.61-.93,5.71.75,5.82.93,1.58-1,1.62-.93,5.08.77,5.17.93S66-.54,66-.48s4.3.8,4.38.94,1.59-1,1.63-.94,2.55.85,2.6.93,1.6-1,1.63-.94-1,1.64-.93,1.69.92-.57.94-.54-1,3.8-.93,3.93S76.28,4,76.3,4s-1,4-.94,4.16.92-.57.94-.54-1,2.09-.94,2.16.92-.58.94-.55-1,2.91-.94,3,.92-.57.94-.54-1,2.76-.94,2.85.93-.57.94-.54-1,4.28-.93,4.41.92-.57.94-.54-1,1.19-.94,1.23.92-.57.94-.54-1,3.42-.94,3.53.92-.58.94-.54-1,3.14-.94,3.24.92-.57.94-.54-1,.82-.94.86.92-.58.94-.55-1,1.28-.94,1.33.92-.57.94-.54-1,3.06-.93,3.16.92-.57.94-.54-1,.63-.94.67.92-.58.94-.54-1,3-.94,3.11.92-.57.94-.54-1,3-.94,3.15.92-.57.94-.54-1,1.83-.94,1.89.92-.57.94-.54-1,4.68-.93,4.83.92-.58.94-.54-1,4.58-.94,4.72.92-.57.94-.54-1,1.83-.94,1.89.92-.57.94-.54-1,4.12-.94,4.25.92-.58.94-.54-1,3.13-.93,3.23.92-.58.93-.54-1,2.78-.93,2.88.92-.58.94-.55-1,1.3-.94,1.35.92-.58.94-.55-1,2-.94,2.06.92-.57.94-.54-1,3.34-.94,3.45.92-.58.94-.54-1,3.19-.94,3.3.92-.58.94-.54-1,1.73-.93,1.79.92-.58.93-.54-1,3.64-.93,3.76.92-.57.94-.54-1,1.36-.94,1.41.92-.57.94-.54-1,3.34-.94,3.45.92-.57.94-.54-1,1.36-.94,1.42.92-.58.94-.55"/><path class="cls-7" d="M-4.27.44s1.47-.92,1.5-.87-1.55,2-1.5,2.09.86-.53.88-.5-1,4.67-.88,4.82.86-.54.88-.51-1,4.79-.88,4.94.87-.54.88-.51-1,4.47-.88,4.61.87-.55.89-.51-1,2.72-.89,2.81.87-.55.89-.51-.94,2.21-.89,2.28.87-.55.89-.52-1,3.42-.89,3.53.87-.55.89-.51-1,2.83-.89,2.92.88-.55.9-.52-1,4.53-.9,4.67.88-.55.9-.52-1,2.68-.9,2.77.88-.56.9-.52-.94,1.45-.9,1.51.88-.56.9-.53-1,2.69-.9,2.78.88-.56.9-.53-1,4.12-.9,4.25.89-.55.91-.52-1,4.87-.91,5,.89-.56.91-.53-.93.57-.91.6.89-.56.91-.52-1,4.9-.91,5.05.9-.56.91-.53-.94.85-.91.89.9-.56.91-.53-1,5-.91,5.15.9-.56.92-.53-1,1.63-.92,1.69.9-.57.92-.53-1,1.55-.92,1.61.9-.57.92-.53-1,4.94-.92,5.09.91-.57.92-.53-1,2.91-.92,3,.91-.57.93-.54-1,1-.93,1,.91-.57.93-.54-1,2.56-.93,2.65.91-.58.93-.54-1,2.49-.93,2.57.91-.57.93-.54-1,3.44-.93,3.55.91-.57.93-.54-1,4.47-.93,4.62,1.07-.68,1.09-.64,0,.91,0,.94,1.6-1,1.63-.94,3.87.81,3.94.94,1.6-1,1.63-.94-.74.9-.72.94,1.59-1,1.63-.94.2.91.22.94,1.59-1,1.62-.94l.58.93c0,.06,1.59-1,1.62-.93s2.12.86,2.16.93,1.59-1,1.62-.93-.23.9-.21.93,1.58-1,1.62-.93,4.57.78,4.66.92,1.58-1,1.61-.93,5.56.76,5.66.93,1.58-1,1.61-.93,3.56.81,3.63.93,1.57-1,1.61-.93,6.26.72,6.38.92,1.57-1,1.6-.93,2.34.85,2.39.93,1.57-1,1.6-.93l.56.92c0,.06,1.56-1,1.59-.92s1.73.86,1.76.92,1.57-1,1.6-.92,3,.82,3.07.92,1.56-1,1.59-.92-1.44.87-1.41.92,1.56-1,1.59-.92-1.39.87-1.36.92,1.56-1,1.59-.92-1.35.87-1.32.92,1.56-1,1.6-.92,3.38.81,3.44.91,1.56-1,1.59-.91.3.88.32.91,1.56-1,1.59-.91-.56.88-.55.91,1.56-1,1.59-.91-.59.88-.58.91,1.56-1,1.59-.91.32.88.34.91,1.55-1,1.58-.92,2.12.85,2.16.92,1.55-1,1.58-.92,1.58.86,1.61.91,1.55-1,1.58-.91,1.24.87,1.27.91,1.47-.92,1.5-.86"/></g></svg>